<svg width="87" height="27" viewBox="0 0 87 27" fill="none" xmlns="http://www.w3.org/2000/svg">
<circle cx="13.5" cy="13.5" r="13.5" fill="#AE8E1B"/>
<path d="M14.426 20.18C13.898 20.18 13.424 20.156 13.004 20.108C12.596 20.06 12.146 19.97 11.654 19.838C11.102 19.694 10.646 19.508 10.286 19.28C9.926 19.04 9.626 18.71 9.386 18.29C9.134 17.87 9.008 17.372 9.008 16.796V11.666C9.008 9.314 10.814 8.138 14.426 8.138C15.35 8.138 16.586 8.27 18.134 8.534V10.64C16.742 10.304 15.518 10.136 14.462 10.136C14.018 10.136 13.67 10.148 13.418 10.172C13.178 10.196 12.926 10.256 12.662 10.352C12.098 10.544 11.816 10.97 11.816 11.63V16.598C11.816 17.654 12.782 18.182 14.714 18.182C15.542 18.182 16.706 18.008 18.206 17.66V19.784C16.922 20.048 15.662 20.18 14.426 20.18Z" fill="white"/>
<path d="M33.328 20.18C32.788 20.18 32.344 20.162 31.996 20.126C31.648 20.09 31.276 20.018 30.88 19.91C30.448 19.79 30.1 19.622 29.836 19.406C29.572 19.178 29.35 18.86 29.17 18.452C28.99 18.056 28.9 17.576 28.9 17.012V14.438C28.9 13.862 28.99 13.358 29.17 12.926C29.35 12.494 29.584 12.158 29.872 11.918C30.124 11.714 30.454 11.546 30.862 11.414C31.282 11.27 31.69 11.18 32.086 11.144C32.542 11.12 32.956 11.108 33.328 11.108C33.88 11.108 34.318 11.126 34.642 11.162C34.978 11.186 35.344 11.258 35.74 11.378C36.172 11.51 36.52 11.69 36.784 11.918C37.06 12.146 37.294 12.47 37.486 12.89C37.666 13.322 37.756 13.838 37.756 14.438V17.012C37.756 17.552 37.666 18.026 37.486 18.434C37.318 18.842 37.096 19.16 36.82 19.388C36.58 19.592 36.25 19.76 35.83 19.892C35.422 20.012 35.02 20.09 34.624 20.126C34.264 20.162 33.832 20.18 33.328 20.18ZM33.328 18.542C33.82 18.542 34.192 18.506 34.444 18.434C34.696 18.35 34.87 18.224 34.966 18.056C35.074 17.888 35.128 17.642 35.128 17.318V14.024C35.128 13.544 35.002 13.208 34.75 13.016C34.498 12.824 34.024 12.728 33.328 12.728C32.632 12.728 32.158 12.824 31.906 13.016C31.654 13.208 31.528 13.544 31.528 14.024V17.318C31.528 17.642 31.576 17.888 31.672 18.056C31.78 18.224 31.96 18.35 32.212 18.434C32.464 18.506 32.836 18.542 33.328 18.542ZM39.8043 11.288H42.3963V12.35C42.6003 11.522 43.5303 11.108 45.1863 11.108C46.3023 11.108 47.0823 11.312 47.5263 11.72C47.9823 12.116 48.2103 12.746 48.2103 13.61V20H45.5823V13.952C45.5823 13.616 45.5463 13.364 45.4743 13.196C45.4143 13.028 45.2823 12.908 45.0783 12.836C44.8863 12.764 44.5863 12.728 44.1783 12.728C43.6623 12.728 43.2843 12.764 43.0443 12.836C42.8043 12.896 42.6423 13.01 42.5583 13.178C42.4743 13.346 42.4323 13.604 42.4323 13.952V20H39.8043V11.288ZM50.6174 8.318H53.4254V12.998H58.3934V8.318H61.2014V20H58.3934V14.996H53.4254V20H50.6174V8.318ZM63.6771 8.138H66.3051V10.262H63.6771V8.138ZM63.6771 11.288H66.3051V20H63.6771V11.288ZM67.5332 11.288H70.3232L72.2312 17.318L74.0672 11.288H76.7132L73.5092 20H70.8452L67.5332 11.288ZM82.235 20.18C79.151 20.18 77.609 19.238 77.609 17.354V14.222C77.609 13.13 77.957 12.338 78.653 11.846C79.361 11.354 80.447 11.108 81.911 11.108C83.291 11.108 84.299 11.348 84.935 11.828C85.583 12.296 85.907 13.094 85.907 14.222V16.346H80.255V17.138C80.255 17.642 80.435 18.002 80.795 18.218C81.155 18.434 81.803 18.542 82.739 18.542C83.603 18.542 84.575 18.416 85.655 18.164V19.838C84.587 20.066 83.447 20.18 82.235 20.18ZM83.405 14.852V13.592C83.405 13.304 83.285 13.088 83.045 12.944C82.817 12.8 82.427 12.728 81.875 12.728C81.239 12.728 80.813 12.8 80.597 12.944C80.369 13.1 80.255 13.316 80.255 13.592V14.852H83.405Z" fill="white"/>
</svg>
